<svg width="52" height="24" viewBox="0 0 52 24" fill="none" xmlns="http://www.w3.org/2000/svg">
<path fill-rule="evenodd" clip-rule="evenodd" d="M1.00003 5.1073C1.00003 2.97686 2.73609 1.24952 4.87651 1.24952H47.1235C49.2648 1.24952 50.9999 2.97686 50.9999 5.1073V18.8936C50.9999 21.0228 49.2648 22.7505 47.1235 22.7505H4.87651C2.73609 22.7505 1.00003 21.0228 1.00003 18.8936V5.1073Z" fill="#000268"/>
<path fill-rule="evenodd" clip-rule="evenodd" d="M2.59103 5.2393V18.7629C2.59103 20.0939 3.67618 21.1735 5.01472 21.1735H27.1483V2.82868H5.01472C3.67618 2.82868 2.59103 3.90822 2.59103 5.2393ZM32.8673 11.9335C32.8673 12.7946 32.4414 13.3863 31.7363 13.3863C31.1135 13.3863 30.5942 12.7946 30.5942 12.0061C30.5942 11.1967 31.0509 10.595 31.7363 10.595C32.4632 10.595 32.8673 11.2176 32.8673 11.9335ZM28.7274 16.8718H30.5942V13.9354H30.6151C30.9687 14.5789 31.6747 14.8173 32.3281 14.8173C33.9359 14.8173 34.7969 13.4897 34.7969 11.8918C34.7969 10.585 33.9776 9.16276 32.4831 9.16276C31.633 9.16276 30.8445 9.5055 30.47 10.2632H30.4492V9.28822H28.7274V16.8718ZM37.3467 12.981C37.3467 12.4627 37.8441 12.2663 38.4779 12.2663C38.7577 12.2663 39.0279 12.2859 39.2664 12.2971C39.2664 12.9297 38.8203 13.5731 38.1143 13.5731C37.6785 13.5731 37.3467 13.3555 37.3467 12.981ZM41.1123 14.6931C41.0298 14.2682 41.009 13.842 41.009 13.4171V11.4043C41.009 9.75484 39.8164 9.16276 38.4362 9.16276C37.6377 9.16276 36.9426 9.277 36.2783 9.5472L36.3101 10.8135C36.8271 10.5225 37.4301 10.4082 38.0318 10.4082C38.7051 10.4082 39.2552 10.6059 39.2664 11.3427C39.0279 11.301 38.6952 11.2692 38.3945 11.2692C37.3993 11.2692 35.6041 11.4669 35.6041 13.1161C35.6041 14.2891 36.5582 14.8173 37.6268 14.8173C38.3945 14.8173 38.9137 14.5175 39.3389 13.842H39.3598C39.3598 14.1231 39.3903 14.402 39.4015 14.6931H41.1123ZM41.9525 16.8718C42.3366 16.9552 42.7201 16.9973 43.1142 16.9973C44.8263 16.9973 45.2303 15.6793 45.7595 14.3199L47.7418 9.28822H45.8738L44.7637 12.8154H44.7428L43.5808 9.28822H41.569L43.7576 14.8173C43.6225 15.2948 43.2701 15.565 42.8132 15.565C42.5529 15.565 42.3257 15.5333 42.0764 15.4508L41.9525 16.8718Z" fill="white"/>
<path fill-rule="evenodd" clip-rule="evenodd" d="M7.15171 11.9444C7.15171 11.2076 7.51529 10.595 8.21039 10.595C9.05057 10.595 9.40295 11.2692 9.40295 11.871C9.40295 12.7012 8.87375 13.2612 8.21039 13.2612C7.65039 13.2612 7.15171 12.7846 7.15171 11.9444ZM11.2084 9.28822H9.51719V10.2632H9.49757C9.10223 9.59888 8.45849 9.16276 7.66035 9.16276C5.98001 9.16276 5.22235 10.3674 5.22235 11.9752C5.22235 13.5731 6.14593 14.6931 7.62829 14.6931C8.37631 14.6931 8.99889 14.402 9.44465 13.7695H9.46551V14.0606C9.46551 15.1183 8.88465 15.6267 7.80635 15.6267C7.02781 15.6267 6.54999 15.4607 5.98001 15.1809L5.88663 16.6545C6.32151 16.8105 7.05833 16.9973 7.95141 16.9973C10.1301 16.9973 11.2084 16.281 11.2084 14.0606V9.28822ZM14.3646 7.03698H12.4968V8.40634H14.3646V7.03698ZM12.4978 14.6931H14.3646V9.28822H12.4978V14.6931ZM19.5643 9.22534C19.3775 9.19482 19.1491 9.16276 18.9318 9.16276C18.1224 9.16276 17.6558 9.59888 17.3339 10.284H17.3131V9.28822H15.6119V14.6931H17.479V12.4114C17.479 11.3527 17.9674 10.7201 18.8384 10.7201C19.0569 10.7201 19.2633 10.7201 19.4709 10.7815L19.5643 9.22534ZM22.7796 13.5105C21.9186 13.5105 21.5662 12.7946 21.5662 11.9961C21.5662 11.1868 21.9186 10.4708 22.7796 10.4708C23.6416 10.4708 23.9943 11.1868 23.9943 11.9961C23.9943 12.7946 23.6416 13.5105 22.7796 13.5105ZM22.7796 14.8173C24.5642 14.8173 25.9236 13.7807 25.9236 11.9961C25.9236 10.2006 24.5642 9.16276 22.7796 9.16276C20.9953 9.16276 19.6369 10.2006 19.6369 11.9961C19.6369 13.7807 20.9953 14.8173 22.7796 14.8173Z" fill="#FF0007"/>
</svg>
