<svg width="17" height="20" viewBox="0 0 17 20" fill="none" xmlns="http://www.w3.org/2000/svg">
<g clip-path="url(#clip0_2_7)">
<path d="M4.81558 19.322L5.1622 17.1203L4.39009 17.1024H0.703178L3.26539 0.85628C3.27335 0.807236 3.2992 0.761506 3.33697 0.729031C3.37475 0.696556 3.42313 0.678661 3.4735 0.678661H9.69016C11.754 0.678661 13.1782 1.10813 13.9219 1.95579C14.2705 2.35345 14.4925 2.76899 14.5999 3.2263C14.7125 3.70613 14.7145 4.27942 14.6045 4.97862L14.5965 5.02966V5.47768L14.9452 5.67518C15.2388 5.83093 15.472 6.00921 15.651 6.21334C15.9492 6.55333 16.1421 6.98545 16.2236 7.49776C16.3078 8.02465 16.2799 8.65162 16.1421 9.36143C15.983 10.1779 15.7259 10.8891 15.3786 11.471C15.0591 12.0072 14.6522 12.4519 14.1691 12.7965C13.7078 13.1239 13.1597 13.3724 12.54 13.5315C11.9396 13.6879 11.2549 13.7668 10.504 13.7668H10.0202C9.67425 13.7668 9.33823 13.8914 9.07446 14.1147C8.81002 14.3427 8.63505 14.6542 8.58136 14.9949L8.54491 15.193L7.93253 19.0735L7.90469 19.216C7.8974 19.261 7.88481 19.2836 7.86625 19.2988C7.84968 19.3127 7.82582 19.322 7.80263 19.322H4.81558V19.322Z" fill="#253B80"/>
<path d="M15.2752 5.08135C15.2566 5.19999 15.2354 5.32127 15.2116 5.44587C14.3917 9.65503 11.587 11.1091 8.00476 11.1091H6.18086C5.74278 11.1091 5.37362 11.4272 5.30536 11.8594L4.37153 17.7818L4.10709 19.4605C4.06269 19.7442 4.2814 20 4.56771 20H7.80262C8.1857 20 8.51111 19.7216 8.57142 19.3439L8.60323 19.1795L9.2123 15.3143L9.25141 15.1022C9.31106 14.7231 9.63713 14.4448 10.0202 14.4448H10.504C13.6382 14.4448 16.0917 13.1723 16.8088 9.49001C17.1084 7.95175 16.9533 6.66733 16.1606 5.76399C15.9207 5.4916 15.6231 5.2656 15.2752 5.08135V5.08135Z" fill="#179BD7"/>
<path d="M14.4176 4.73937C14.2923 4.70292 14.1631 4.66978 14.0305 4.63996C13.8973 4.6108 13.7608 4.58495 13.6203 4.56241C13.1285 4.48288 12.5897 4.44511 12.0125 4.44511H7.13987C7.01991 4.44511 6.90592 4.47228 6.80385 4.52132C6.57918 4.62935 6.41216 4.8421 6.37173 5.10256L5.33518 11.6678L5.30536 11.8594C5.37362 11.4272 5.74278 11.1091 6.18086 11.1091H8.00477C11.587 11.1091 14.3917 9.65437 15.2116 5.44587C15.2361 5.32127 15.2566 5.19999 15.2752 5.08135C15.0678 4.97134 14.8431 4.87722 14.6012 4.79703C14.5415 4.77715 14.4799 4.75793 14.4176 4.73937V4.73937Z" fill="#222D65"/>
<path d="M6.37173 5.10256C6.41216 4.8421 6.57918 4.62935 6.80385 4.52199C6.90658 4.47294 7.01991 4.44577 7.13987 4.44577H12.0125C12.5897 4.44577 13.1285 4.48355 13.6203 4.56308C13.7608 4.58561 13.8973 4.61146 14.0305 4.64062C14.1631 4.67044 14.2923 4.70358 14.4176 4.74003C14.4799 4.75859 14.5415 4.77781 14.6018 4.79703C14.8437 4.87722 15.0684 4.972 15.2759 5.08135C15.5198 3.52586 15.2739 2.46678 14.4328 1.50777C13.5056 0.452 11.8322 0 9.69082 0H3.47416C3.03674 0 2.66361 0.318123 2.59601 0.750903L0.00662016 17.1641C-0.0444121 17.4888 0.20611 17.7818 0.533511 17.7818H4.37153L5.33518 11.6678L6.37173 5.10256V5.10256Z" fill="#253B80"/>
</g>
<defs>
<clipPath id="clip0_2_7">
<rect width="16.9509" height="20" fill="white"/>
</clipPath>
</defs>
</svg>
