<svg width="36" height="16" viewBox="0 0 36 16" fill="none" xmlns="http://www.w3.org/2000/svg">
<path fill-rule="evenodd" clip-rule="evenodd" d="M32.813 11.2719H29.2722L28.7957 13H26.0582L29.0109 3H33.0079L36 13H33.3188L32.813 11.2719ZM32.2858 9.32387L31.0466 4.98923L29.8412 9.32387H32.2858ZM18.8291 13V3H23.7612C24.4382 3 24.9553 3.05726 25.309 3.16835C26.1202 3.42716 26.6643 3.95625 26.9437 4.75561C27.0879 5.17476 27.16 5.80692 27.16 6.65094C27.16 7.6656 27.0811 8.39395 26.9234 8.8383C26.6057 9.71553 25.9546 10.2206 24.9711 10.3523C24.8551 10.3717 24.3627 10.3889 23.4953 10.4038L23.056 10.4187H21.4765V13H18.8291ZM21.4765 8.09849H23.1269C23.6508 8.07902 23.9685 8.03779 24.0845 7.97481C24.24 7.88662 24.3447 7.71141 24.3965 7.44915C24.4303 7.27393 24.4472 7.01397 24.4472 6.67041C24.4472 6.24668 24.4146 5.93289 24.347 5.7279C24.2523 5.44159 24.0237 5.26638 23.6632 5.20339C23.4923 5.18968 23.3208 5.18471 23.1495 5.1885H21.4765V8.09849ZM7.99962 6.19056H5.53474C5.53474 5.77829 5.48629 5.50344 5.39279 5.36372C5.24634 5.15529 4.84078 5.05222 4.18062 5.05222C3.53736 5.05222 3.1104 5.11177 2.90199 5.23088C2.69471 5.35112 2.59106 5.61223 2.59106 6.01535C2.59106 6.37952 2.68344 6.61887 2.86707 6.73339C3 6.81356 3.17349 6.8628 3.39204 6.87769L3.88997 6.91205C4.55527 6.95388 5.21999 7.00466 5.88397 7.06436C6.72662 7.15025 7.33496 7.37815 7.71461 7.74691C8.01202 8.03321 8.19114 8.41113 8.24747 8.87494C8.28014 9.15323 8.29591 9.46702 8.29591 9.81631C8.29591 10.6214 8.22155 11.2112 8.0706 11.5857C7.79572 12.2705 7.17837 12.7034 6.21968 12.8855C5.81863 12.9622 5.20578 13 4.37777 13C2.99887 13 2.0368 12.9175 1.4938 12.7481C0.82914 12.5442 0.389786 12.1273 0.176868 11.4998C0.057454 11.1528 0 10.5721 0 9.75676H2.46489V9.96519C2.46489 10.3992 2.58768 10.6787 2.83327 10.8012C3.00225 10.8882 3.20728 10.9329 3.44837 10.9386H4.35411C4.816 10.9386 5.11003 10.9146 5.23845 10.8665C5.46376 10.7749 5.61247 10.6306 5.68457 10.429C5.72062 10.303 5.74089 10.1427 5.74089 9.94686C5.74089 9.5071 5.58318 9.23912 5.26662 9.14292C5.14833 9.10513 4.59857 9.05131 3.61848 8.98488C2.83214 8.92762 2.28577 8.87265 1.97935 8.81997C1.17274 8.66651 0.634247 8.35044 0.367255 7.87174C0.13068 7.46519 0.012392 6.85021 0.012392 6.0268C0.012392 5.39922 0.0777319 4.89647 0.203905 4.51855C0.331205 4.14063 0.536237 3.85318 0.821254 3.65735C1.2347 3.35502 1.76756 3.17865 2.41419 3.12597C3.00995 3.07552 3.60759 3.05144 4.20541 3.05382C5.23845 3.05382 5.97522 3.11338 6.4157 3.23362C7.48817 3.5268 8.02216 4.34677 8.02216 5.69354C8.02216 5.80463 8.0154 5.96839 7.99962 6.19056V6.19056ZM15.1746 4.40747C13.9277 4.40856 12.7761 5.0856 12.1532 6.18369H17.6249L16.9681 7.61521H11.6981C11.6693 7.91117 11.6761 8.2096 11.7184 8.50389H16.5614L15.9035 9.93655H12.2569C12.9003 10.9386 13.9975 11.5432 15.1746 11.5444C16.1789 11.5448 17.1343 11.1039 17.795 10.3351V12.0907C17.0008 12.629 16.0398 12.9439 15.0056 12.9439C12.9519 12.9439 11.1889 11.7036 10.4363 9.93541H8.69358L9.35036 8.50389H10.0702C10.0415 8.20849 10.0392 7.91103 10.0635 7.61521H8.63162L9.28952 6.18369H10.4026C11.1348 4.37082 12.9193 3.08933 15.0056 3.08933C16.287 3.08601 17.5208 3.58238 18.4529 4.47618L17.8817 5.71988C17.2407 4.91938 16.2674 4.40747 15.1746 4.40747V4.40747Z" fill="black"/>
</svg>
